<svg width="27" height="27" viewBox="0 0 27 27" fill="none" xmlns="http://www.w3.org/2000/svg">
<path fill-rule="evenodd" clip-rule="evenodd" d="M13.0954 25.1125L13.0993 25.1138C13.3554 25.2256 13.4984 25.1996 13.4984 25.1996C13.4984 25.1996 13.6414 25.2256 13.8988 25.1138L13.9014 25.1125L13.9092 25.1086L13.9326 25.0982C14.056 25.0409 14.1779 24.9802 14.2979 24.9162C14.5397 24.7914 14.8777 24.6042 15.282 24.3533C16.088 23.8541 17.1605 23.0975 18.2382 22.0588C20.391 19.984 22.5984 16.7405 22.5984 12.1996C22.5984 11.0046 22.3631 9.82125 21.9057 8.71719C21.4484 7.61313 20.7781 6.60995 19.9331 5.76494C19.0881 4.91992 18.0849 4.24962 16.9809 3.79231C15.8768 3.33499 14.6935 3.09961 13.4984 3.09961C12.3034 3.09961 11.1201 3.33499 10.016 3.79231C8.91196 4.24962 7.90878 4.91992 7.06377 5.76494C6.21875 6.60995 5.54845 7.61313 5.09113 8.71719C4.63382 9.82125 4.39844 11.0046 4.39844 12.1996C4.39844 16.7392 6.60584 19.984 8.75994 22.0588C9.66182 22.925 10.6522 23.6941 11.7148 24.3533C12.1264 24.6089 12.5498 24.8449 12.9836 25.0605L13.0642 25.0982L13.0876 25.1086L13.0954 25.1125ZM13.4984 15.1246C14.2742 15.1246 15.0182 14.8164 15.5667 14.2679C16.1153 13.7194 16.4234 12.9754 16.4234 12.1996C16.4234 11.4239 16.1153 10.6799 15.5667 10.1313C15.0182 9.58278 14.2742 9.27461 13.4984 9.27461C12.7227 9.27461 11.9787 9.58278 11.4302 10.1313C10.8816 10.6799 10.5734 11.4239 10.5734 12.1996C10.5734 12.9754 10.8816 13.7194 11.4302 14.2679C11.9787 14.8164 12.7227 15.1246 13.4984 15.1246Z" fill="#FF7A32"/>
</svg>
