<svg width="86" height="86" viewBox="0 0 86 86" fill="none" xmlns="http://www.w3.org/2000/svg">
<path d="M33.3867 29.8477C33.3867 29.1054 32.7853 28.5039 32.043 28.5039C31.3007 28.5039 30.6992 29.1054 30.6992 29.8477V32.6701C30.6992 33.4124 31.3007 34.0138 32.043 34.0138C32.7853 34.0138 33.3867 33.4124 33.3867 32.6701V29.8477Z" fill="#00373A"/>
<path d="M32.043 37.1045C31.3007 37.1045 30.6992 37.706 30.6992 38.4482V41.2707C30.6992 42.0129 31.3007 42.6144 32.043 42.6144C32.7853 42.6144 33.3867 42.0129 33.3867 41.2707V38.4482C33.3867 37.706 32.7847 37.1045 32.043 37.1045Z" fill="#00373A"/>
<path d="M38.7617 29.8477C38.7617 29.1054 38.1603 28.5039 37.418 28.5039C36.6757 28.5039 36.0742 29.1054 36.0742 29.8477V32.6701C36.0742 33.4124 36.6757 34.0138 37.418 34.0138C38.1603 34.0138 38.7617 33.4124 38.7617 32.6701V29.8477Z" fill="#00373A"/>
<path d="M37.418 37.1045C36.6757 37.1045 36.0742 37.706 36.0742 38.4482V41.2707C36.0742 42.0129 36.6757 42.6144 37.418 42.6144C38.1603 42.6144 38.7617 42.0129 38.7617 41.2707V38.4482C38.7617 37.706 38.1597 37.1045 37.418 37.1045Z" fill="#00373A"/>
<path d="M44.1406 29.8477C44.1406 29.1054 43.5392 28.5039 42.7969 28.5039C42.0546 28.5039 41.4531 29.1054 41.4531 29.8477V32.6701C41.4531 33.4124 42.0546 34.0138 42.7969 34.0138C43.5392 34.0138 44.1406 33.4124 44.1406 32.6701V29.8477Z" fill="#00373A"/>
<path d="M42.7969 37.1045C42.0546 37.1045 41.4531 37.706 41.4531 38.4482V41.2707C41.4531 42.0129 42.0546 42.6144 42.7969 42.6144C43.5392 42.6144 44.1406 42.0129 44.1406 41.2707V38.4482C44.1406 37.706 43.5386 37.1045 42.7969 37.1045Z" fill="#00373A"/>
<path d="M49.5117 29.8477C49.5117 29.1054 48.9103 28.5039 48.168 28.5039C47.4257 28.5039 46.8242 29.1054 46.8242 29.8477V32.6701C46.8242 33.4124 47.4257 34.0138 48.168 34.0138C48.9103 34.0138 49.5117 33.4124 49.5117 32.6701V29.8477Z" fill="#00373A"/>
<path d="M48.168 37.1045C47.4257 37.1045 46.8242 37.706 46.8242 38.4482V41.2707C46.8242 42.0129 47.4257 42.6144 48.168 42.6144C48.9103 42.6144 49.5117 42.0129 49.5117 41.2707V38.4482C49.5117 37.706 48.9097 37.1045 48.168 37.1045Z" fill="#00373A"/>
<path d="M54.8867 29.8477C54.8867 29.1054 54.2853 28.5039 53.543 28.5039C52.8007 28.5039 52.1992 29.1054 52.1992 29.8477V32.6701C52.1992 33.4124 52.8007 34.0138 53.543 34.0138C54.2853 34.0138 54.8867 33.4124 54.8867 32.6701V29.8477Z" fill="#00373A"/>
<path d="M53.543 37.1045C52.8007 37.1045 52.1992 37.706 52.1992 38.4482V41.2707C52.1992 42.0129 52.8007 42.6144 53.543 42.6144C54.2853 42.6144 54.8867 42.0129 54.8867 41.2707V38.4482C54.8867 37.706 54.2847 37.1045 53.543 37.1045Z" fill="#00373A"/>
<path d="M32.4218 25.3103H53.1634C57.3785 25.3103 60.8072 21.8816 60.8072 17.6665C60.8072 13.5062 57.4666 10.1109 53.3268 10.0238C51.6837 5.73346 47.4895 2.7627 42.7923 2.7627C38.0978 2.7627 33.9042 5.73292 32.2616 10.0238C28.1223 10.1092 24.7812 13.5052 24.7812 17.6665C24.7812 21.8816 28.2089 25.3103 32.4218 25.3103ZM32.4218 13.7852C32.7002 13.7852 32.9706 13.8132 33.2275 13.868C34.2456 14.0841 35.2394 13.4407 35.4592 12.4286C36.2047 9.00845 39.2884 6.52573 42.7923 6.52573C46.2979 6.52573 49.3837 9.00845 50.1287 12.4286C50.349 13.4407 51.3461 14.0878 52.3609 13.8674C52.62 13.8115 52.8828 13.7852 53.1629 13.7852C55.3026 13.7852 57.0441 15.5262 57.0441 17.667C57.0441 19.8068 55.3032 21.5483 53.1629 21.5483H32.4218C30.2831 21.5483 28.5437 19.8074 28.5437 17.667C28.5437 15.5262 30.2831 13.7852 32.4218 13.7852Z" fill="#00373A"/>
<path d="M45.6016 78.0576H49.3641V83.237H45.6016V78.0576Z" fill="#00373A"/>
<path d="M73.8477 78.0576H77.6102V83.237H73.8477V78.0576Z" fill="#00373A"/>
<path d="M82.9333 73.1627L62.9071 46.5881C62.5518 46.1162 61.9955 45.8389 61.4048 45.8389H24.5947C24.3947 45.8389 24.2012 45.8733 24.0168 45.9329C23.9889 45.9421 23.962 45.9528 23.9346 45.963C23.8545 45.9931 23.7766 46.0286 23.7019 46.0689C23.6782 46.0818 23.6546 46.0926 23.632 46.106C23.5401 46.1608 23.453 46.2237 23.3713 46.2936C23.3519 46.3103 23.3342 46.3296 23.3149 46.3473C23.2477 46.4097 23.1853 46.4774 23.1278 46.5494C23.1165 46.5634 23.1031 46.5736 23.0923 46.5881L3.06616 73.1627C2.63724 73.7324 2.56683 74.4957 2.88503 75.1342C3.20323 75.7728 3.85521 76.1759 4.56848 76.1759H8.93513V83.2365H12.6976V74.2947C12.6976 74.2033 12.6831 74.1157 12.6708 74.0281L25.9416 55.759L24.2501 53.5144L10.5218 72.4134H8.34173L24.5947 50.8457L43.1185 75.4266C43.4738 75.8986 44.0301 76.1759 44.6208 76.1759H81.431C82.1442 76.1759 82.7962 75.7722 83.1144 75.1342C83.4332 74.4957 83.3628 73.7319 82.9333 73.1627ZM45.5588 72.4134L28.3679 49.6014H60.4669L77.6572 72.4134H45.5588Z" fill="#00373A"/>
</svg>
