<svg width="80" height="80" viewBox="0 0 80 80" fill="none" xmlns="http://www.w3.org/2000/svg">
<path d="M63.3346 1.66699H16.668C12.6911 1.6714 8.87833 3.25317 6.06624 6.06526C3.25415 8.87735 1.67238 12.6901 1.66797 16.667V63.3337C1.67238 67.3106 3.25415 71.1233 6.06624 73.9354C8.87833 76.7475 12.6911 78.3292 16.668 78.3337H63.3346C67.3115 78.3292 71.1243 76.7475 73.9364 73.9354C76.7485 71.1233 78.3302 67.3106 78.3346 63.3337V16.667C78.3302 12.6901 76.7485 8.87735 73.9364 6.06526C71.1243 3.25317 67.3115 1.6714 63.3346 1.66699ZM75.0013 63.3337C74.9976 66.4267 73.7672 69.392 71.5801 71.5791C69.393 73.7663 66.4277 74.9966 63.3346 75.0003H16.668C13.5749 74.9966 10.6096 73.7663 8.42248 71.5791C6.23536 69.392 5.00501 66.4267 5.0013 63.3337V16.667C5.00501 13.5739 6.23536 10.6086 8.42248 8.4215C10.6096 6.23438 13.5749 5.00403 16.668 5.00033H63.3346C66.4277 5.00403 69.393 6.23438 71.5801 8.4215C73.7672 10.6086 74.9976 13.5739 75.0013 16.667V63.3337Z" fill="#00373A"/>
<path d="M63.3333 21.6667H31.6667V20C31.6652 18.6744 31.1379 17.4035 30.2005 16.4661C29.2632 15.5288 27.9923 15.0015 26.6667 15H20C18.6744 15.0015 17.4035 15.5288 16.4661 16.4661C15.5288 17.4035 15.0015 18.6744 15 20V26.6667C15.0015 27.9923 15.5288 29.2632 16.4661 30.2005C17.4035 31.1379 18.6744 31.6652 20 31.6667H26.6667C27.9923 31.6652 29.2632 31.1379 30.2005 30.2005C31.1379 29.2632 31.6652 27.9923 31.6667 26.6667V25H63.3333C63.7754 25 64.1993 24.8244 64.5118 24.5118C64.8244 24.1993 65 23.7754 65 23.3333C65 22.8913 64.8244 22.4674 64.5118 22.1548C64.1993 21.8423 63.7754 21.6667 63.3333 21.6667ZM28.3333 26.6667C28.3328 27.1085 28.157 27.5321 27.8446 27.8446C27.5321 28.157 27.1085 28.3328 26.6667 28.3333H20C19.5581 28.3328 19.1345 28.157 18.8221 27.8446C18.5096 27.5321 18.3339 27.1085 18.3333 26.6667V20C18.3339 19.5581 18.5096 19.1345 18.8221 18.8221C19.1345 18.5096 19.5581 18.3339 20 18.3333H26.6667C27.1085 18.3339 27.5321 18.5096 27.8446 18.8221C28.157 19.1345 28.3328 19.5581 28.3333 20V26.6667Z" fill="#00373A"/>
<path d="M63.3333 38.3337H48.3333V36.667C48.3318 35.3414 47.8046 34.0705 46.8672 33.1331C45.9299 32.1958 44.659 31.6685 43.3333 31.667H36.6667C35.341 31.6685 34.0701 32.1958 33.1328 33.1331C32.1954 34.0705 31.6682 35.3414 31.6667 36.667V38.3337H16.6667C16.2246 38.3337 15.8007 38.5093 15.4882 38.8218C15.1756 39.1344 15 39.5583 15 40.0003C15 40.4424 15.1756 40.8663 15.4882 41.1788C15.8007 41.4914 16.2246 41.667 16.6667 41.667H31.6667V43.3337C31.6682 44.6593 32.1954 45.9302 33.1328 46.8675C34.0701 47.8049 35.341 48.3322 36.6667 48.3337H43.3333C44.659 48.3322 45.9299 47.8049 46.8672 46.8675C47.8046 45.9302 48.3318 44.6593 48.3333 43.3337V41.667H63.3333C63.7754 41.667 64.1993 41.4914 64.5118 41.1788C64.8244 40.8663 65 40.4424 65 40.0003C65 39.5583 64.8244 39.1344 64.5118 38.8218C64.1993 38.5093 63.7754 38.3337 63.3333 38.3337ZM45 43.3337C44.9995 43.7755 44.8237 44.1991 44.5113 44.5116C44.1988 44.824 43.7752 44.9998 43.3333 45.0003H36.6667C36.2248 44.9998 35.8012 44.824 35.4887 44.5116C35.1763 44.1991 35.0005 43.7755 35 43.3337V36.667C35.0005 36.2251 35.1763 35.8015 35.4887 35.4891C35.8012 35.1766 36.2248 35.0009 36.6667 35.0003H43.3333C43.7752 35.0009 44.1988 35.1766 44.5113 35.4891C44.8237 35.8015 44.9995 36.2251 45 36.667V43.3337Z" fill="#00373A"/>
<path d="M60 48.333H53.3333C52.0077 48.3345 50.7368 48.8618 49.7995 49.7991C48.8621 50.7365 48.3348 52.0074 48.3333 53.333V54.9997H16.6667C16.2246 54.9997 15.8007 55.1753 15.4882 55.4878C15.1756 55.8004 15 56.2243 15 56.6663C15 57.1084 15.1756 57.5323 15.4882 57.8449C15.8007 58.1574 16.2246 58.333 16.6667 58.333H48.3333V59.9997C48.3348 61.3253 48.8621 62.5962 49.7995 63.5336C50.7368 64.4709 52.0077 64.9982 53.3333 64.9997H60C61.3256 64.9982 62.5965 64.4709 63.5339 63.5336C64.4712 62.5962 64.9985 61.3253 65 59.9997V53.333C64.9985 52.0074 64.4712 50.7365 63.5339 49.7991C62.5965 48.8618 61.3256 48.3345 60 48.333ZM61.6667 59.9997C61.6661 60.4415 61.4904 60.8652 61.1779 61.1776C60.8655 61.49 60.4419 61.6658 60 61.6663H53.3333C52.8915 61.6658 52.4678 61.49 52.1554 61.1776C51.843 60.8652 51.6672 60.4415 51.6667 59.9997V53.333C51.6672 52.8911 51.843 52.4675 52.1554 52.1551C52.4678 51.8426 52.8915 51.6669 53.3333 51.6663H60C60.4419 51.6669 60.8655 51.8426 61.1779 52.1551C61.4904 52.4675 61.6661 52.8911 61.6667 53.333V59.9997Z" fill="#00373A"/>
</svg>
