<svg width="86" height="86" viewBox="0 0 86 86" fill="none" xmlns="http://www.w3.org/2000/svg">
<path d="M46.3235 76.9299H43.636V64.9813C40.5865 63.3689 38.0377 60.9509 36.2671 57.9904C34.4965 55.03 33.572 51.6406 33.5941 48.1911C33.6098 44.8763 34.4845 41.6221 36.1331 38.7462C37.7817 35.8704 40.1478 33.4711 43.0004 31.7826C43.2048 31.6646 43.4366 31.6025 43.6726 31.6025C43.9086 31.6026 44.1404 31.6648 44.3447 31.7829C44.549 31.901 44.7186 32.0708 44.8365 32.2753C44.9543 32.4797 45.0162 32.7116 45.016 32.9476V46.4765L52.6324 50.7523L60.2488 46.4765V32.9476C60.2488 32.7107 60.3116 32.478 60.4305 32.2732C60.5495 32.0684 60.7205 31.8986 60.9262 31.7811C61.132 31.6637 61.3651 31.6027 61.602 31.6044C61.8389 31.606 62.0711 31.6703 62.2751 31.7906C65.1874 33.5026 67.5914 35.9591 69.2401 38.9077C70.8888 41.8564 71.7227 45.1907 71.6563 48.5683C71.5898 51.9459 70.6252 55.2449 68.8618 58.1263C67.0983 61.0077 64.5995 63.3677 61.6221 64.9638V75.9221H58.9346V64.1401C58.9349 63.8872 59.0066 63.6396 59.1414 63.4257C59.2762 63.2117 59.4686 63.0402 59.6965 62.9307C62.1801 61.7402 64.3225 59.9411 65.9245 57.7006C67.5264 55.4602 68.5359 52.8511 68.8592 50.1159C69.1825 47.3807 68.809 44.6082 67.7734 42.056C66.7379 39.5038 65.074 37.2549 62.9363 35.5182V47.2653C62.9362 47.504 62.8725 47.7383 62.7519 47.9443C62.6312 48.1502 62.4578 48.3203 62.2496 48.437L53.2895 53.4667C53.0888 53.5792 52.8625 53.6383 52.6324 53.6383C52.4023 53.6383 52.176 53.5792 51.9753 53.4667L43.0152 48.437C42.807 48.3203 42.6336 48.1502 42.5129 47.9443C42.3922 47.7383 42.3286 47.504 42.3285 47.2653V35.498C40.4511 37.0406 38.9362 38.9774 37.8912 41.171C36.8461 43.3646 36.2966 45.7613 36.2816 48.1911C36.2542 51.2736 37.1113 54.2993 38.7513 56.9094C40.3914 59.5195 42.7456 61.6046 45.5347 62.9173C45.7692 63.0242 45.968 63.1964 46.1074 63.4132C46.2468 63.63 46.3208 63.8823 46.3208 64.1401L46.3235 76.9299Z" fill="#FF7A32"/>
<path d="M58.1125 19.6645H55.425V14.0664H49.8242V19.6645H47.1367V12.7227C47.1367 12.3663 47.2783 12.0245 47.5303 11.7725C47.7823 11.5205 48.1241 11.3789 48.4805 11.3789H56.7687C57.1251 11.3789 57.4669 11.5205 57.7189 11.7725C57.9709 12.0245 58.1125 12.3663 58.1125 12.7227V19.6645Z" fill="#FF7A32"/>
<path d="M61.6039 14.0664H43.6406C43.2842 14.0664 42.9425 13.9248 42.6904 13.6728C42.4384 13.4208 42.2969 13.079 42.2969 12.7226V6.38281C42.2969 6.02643 42.4384 5.68464 42.6904 5.43264C42.9425 5.18064 43.2842 5.03906 43.6406 5.03906H61.6039C61.9603 5.03906 62.302 5.18064 62.5541 5.43264C62.8061 5.68464 62.9476 6.02643 62.9476 6.38281V12.7226C62.9476 13.079 62.8061 13.4208 62.5541 13.6728C62.302 13.9248 61.9603 14.0664 61.6039 14.0664ZM44.9857 11.3789H60.2601V7.72656H44.9857V11.3789Z" fill="#FF7A32"/>
<path d="M52.6247 78.2731H18.3335C17.9771 78.2731 17.6354 78.1315 17.3834 77.8795C17.1314 77.6275 16.9898 77.2857 16.9898 76.9293V68.1627C16.9898 67.8063 17.1314 67.4645 17.3834 67.2125C17.6354 66.9605 17.9771 66.819 18.3335 66.819H29.0096C27.8264 65.3171 26.7884 63.7064 25.9096 62.0083H5.51953C5.16315 62.0083 4.82136 61.8668 4.56936 61.6148C4.31735 61.3628 4.17578 61.021 4.17578 60.6646V51.8993C4.17578 51.5429 4.31735 51.2011 4.56936 50.9491C4.82136 50.6971 5.16315 50.5556 5.51953 50.5556H22.6147C22.5368 49.6996 22.5005 48.9135 22.5005 48.1503C22.5005 47.387 22.5368 46.5996 22.6147 45.7436H15.4539C15.0975 45.7436 14.7557 45.602 14.5037 45.35C14.2517 45.098 14.1101 44.7562 14.1101 44.3998V35.6332C14.1101 35.2768 14.2517 34.935 14.5037 34.683C14.7557 34.431 15.0975 34.2895 15.4539 34.2895H25.9096C26.7887 32.5916 27.8267 30.9809 29.0096 29.4788H5.51953C5.16315 29.4788 4.82136 29.3373 4.56936 29.0853C4.31735 28.8333 4.17578 28.4915 4.17578 28.1351V19.3698C4.17578 19.0134 4.31735 18.6716 4.56936 18.4196C4.82136 18.1676 5.16315 18.0261 5.51953 18.0261H52.6247C56.5975 17.9995 60.5363 18.7591 64.2144 20.2611C67.8924 21.763 71.237 23.9777 74.0556 26.7775C76.8743 29.5774 79.1112 32.9072 80.6377 36.5751C82.1642 40.243 82.9501 44.1767 82.9501 48.1496C82.9501 52.1225 82.1642 56.0561 80.6377 59.7241C79.1112 63.392 76.8743 66.7217 74.0556 69.5216C71.237 72.3215 67.8924 74.5361 64.2144 76.0381C60.5363 77.5401 56.5975 78.2996 52.6247 78.2731ZM19.6773 75.5856H52.6247C56.2438 75.6109 59.8321 74.92 63.1831 73.5525C66.534 72.1851 69.5813 70.1682 72.1494 67.618C74.7175 65.0678 76.7556 62.0347 78.1465 58.6935C79.5373 55.3522 80.2534 51.7688 80.2534 48.1496C80.2534 44.5304 79.5373 40.947 78.1465 37.6057C76.7556 34.2644 74.7175 31.2313 72.1494 28.6811C69.5813 26.131 66.534 24.1141 63.1831 22.7466C59.8321 21.3792 56.2438 20.6882 52.6247 20.7136H6.86328V26.7913H31.9686C32.2335 26.7906 32.4928 26.8682 32.7138 27.0143C32.9347 27.1605 33.1076 27.3688 33.2105 27.6129C33.3135 27.857 33.342 28.1261 33.2924 28.3864C33.2429 28.6467 33.1175 28.8865 32.932 29.0757C30.901 31.1763 29.2193 33.5883 27.9507 36.2204C27.8405 36.4473 27.6686 36.6386 27.4547 36.7724C27.2409 36.9062 26.9936 36.9771 26.7414 36.977H16.7976V43.0561H24.1157C24.3067 43.0561 24.4955 43.0967 24.6696 43.1754C24.8436 43.2541 24.9989 43.369 25.125 43.5124C25.2512 43.6559 25.3453 43.8246 25.4011 44.0072C25.4569 44.1899 25.4731 44.3824 25.4487 44.5718C25.1011 46.9439 25.1011 49.3539 25.4487 51.726C25.4733 51.9155 25.4573 52.1081 25.4016 52.291C25.3459 52.4738 25.2518 52.6427 25.1256 52.7863C24.9994 52.9299 24.8441 53.0449 24.6699 53.1236C24.4958 53.2024 24.3068 53.2431 24.1157 53.2431H6.86328V59.3208H26.7414C26.9938 59.3208 27.2411 59.3919 27.455 59.526C27.6689 59.66 27.8407 59.8516 27.9507 60.0787C29.22 62.7123 30.9026 65.1257 32.9347 67.2275C33.1202 67.4167 33.2456 67.6565 33.2951 67.9168C33.3447 68.1771 33.3162 68.4462 33.2132 68.6903C33.1103 68.9344 32.9374 69.1427 32.7164 69.2888C32.4955 69.435 32.2362 69.5126 31.9712 69.5118H19.6773V75.5856Z" fill="#FF7A32"/>
</svg>
