<svg width="79" height="80" viewBox="0 0 79 80" fill="none" xmlns="http://www.w3.org/2000/svg">
<g clip-path="url(#clip0_1_152)">
<path d="M67.4779 79.5003H11.5195C8.79732 79.5003 6.58203 77.285 6.58203 74.5628V37.5316C6.58203 36.6231 7.31936 35.8857 8.22786 35.8857C9.13636 35.8857 9.8737 36.6231 9.8737 37.5316V74.5628C9.8737 75.4713 10.611 76.2087 11.5195 76.2087H67.4779C68.3864 76.2087 69.1237 75.4713 69.1237 74.5628V37.5316C69.1237 36.6231 69.861 35.8857 70.7695 35.8857C71.678 35.8857 72.4154 36.6231 72.4154 37.5316V74.5628C72.4154 77.285 70.2001 79.5003 67.4779 79.5003Z" fill="#00373A"/>
<path d="M77.3542 43.2915C77.025 43.2915 76.6958 43.1928 76.4128 42.9986L39.5 17.317L2.58725 42.9986C2.08692 43.3475 1.42858 43.3903 0.885458 43.1072C0.342333 42.8208 0 42.2579 0 41.6457V28.479C0 27.9392 0.263333 27.4356 0.704417 27.1261L38.5586 0.792805C39.1247 0.401096 39.872 0.401096 40.4381 0.792805L78.2923 27.1261C78.7367 27.4356 79 27.9392 79 28.479V41.6457C79 42.2579 78.6577 42.8208 78.1145 43.1039C77.8775 43.229 77.6142 43.2915 77.3542 43.2915ZM39.5 13.6665C39.8292 13.6665 40.1583 13.7653 40.4414 13.9595L75.7083 38.4956V29.3381L39.5 4.1503L3.29167 29.3381V38.4956L38.5586 13.9595C38.8417 13.7653 39.1708 13.6665 39.5 13.6665Z" fill="#00373A"/>
<path d="M60.8945 79.4997H18.1029C17.1944 79.4997 16.457 78.7623 16.457 77.8538V38.3538C16.457 37.4453 17.1944 36.708 18.1029 36.708H60.8945C61.803 36.708 62.5404 37.4453 62.5404 38.3538V77.8538C62.5404 78.7623 61.803 79.4997 60.8945 79.4997ZM19.7487 76.208H59.2487V39.9997H19.7487V76.208Z" fill="#00373A"/>
<path d="M60.8945 53.1667H18.1029C17.1944 53.1667 16.457 52.4293 16.457 51.5208C16.457 50.6123 17.1944 49.875 18.1029 49.875H60.8945C61.803 49.875 62.5404 50.6123 62.5404 51.5208C62.5404 52.4293 61.803 53.1667 60.8945 53.1667Z" fill="#00373A"/>
<path d="M60.8945 66.3337H18.1029C17.1944 66.3337 16.457 65.5963 16.457 64.6878C16.457 63.7793 17.1944 63.042 18.1029 63.042H60.8945C61.803 63.042 62.5404 63.7793 62.5404 64.6878C62.5404 65.5963 61.803 66.3337 60.8945 66.3337Z" fill="#00373A"/>
</g>
<defs>
<clipPath id="clip0_1_152">
<rect width="79" height="79" fill="white" transform="translate(0 0.5)"/>
</clipPath>
</defs>
</svg>
