<svg width="86" height="86" viewBox="0 0 86 86" fill="none" xmlns="http://www.w3.org/2000/svg">
<path d="M14.6953 61.0852V72.4008C14.6953 74.2728 16.0243 75.7953 17.6578 75.7953H20.3161H30.5534V81.4264C30.5534 83.3923 31.9432 84.9912 33.6519 84.9912H36.5188H49.4818H52.3487C54.0574 84.9912 55.4474 83.3923 55.4474 81.4264V75.7953H65.6847C65.6874 75.7953 65.69 75.7944 65.6926 75.7944H68.3418C69.9738 75.7944 71.3015 74.2728 71.3015 72.4025V68.8471C71.3015 68.1718 70.754 67.6241 70.0785 67.6241C69.4029 67.6241 68.8555 68.1718 68.8555 68.8471V72.4023C68.8555 72.9709 68.5466 73.3483 68.3418 73.3483H66.9077V68.9912C66.9077 68.316 66.3603 67.7682 65.6847 67.7682C65.0092 67.7682 64.4618 68.316 64.4618 68.9912V73.3483H55.4474V69.223C55.4474 65.5441 53.3348 62.4554 50.4935 61.5957V61.0854C50.4935 58.3606 52.1577 56.1439 54.2036 56.1439H65.1456C67.1911 56.1439 68.8553 58.3606 68.8553 61.0854V62.5776C68.8553 63.2529 69.4027 63.8006 70.0783 63.8006C70.7539 63.8006 71.3013 63.2529 71.3013 62.5776V61.0854C71.3013 57.0118 68.5399 53.6978 65.1456 53.6978H54.2036C50.8091 53.6978 48.0474 57.0118 48.0474 61.0854V61.3498H37.9556V61.0854C37.9556 57.011 35.1919 53.6963 31.7947 53.6963H20.8566C17.4591 53.6961 14.6953 57.0108 14.6953 61.0852ZM53.0013 69.223V81.4262C53.0013 82.0561 52.6505 82.5449 52.3487 82.5449H50.7048V77.7491C50.7048 77.0738 50.1574 76.5261 49.4818 76.5261C48.8062 76.5261 48.2588 77.0738 48.2588 77.7491V82.5449H37.742V77.7491C37.742 77.0738 37.1946 76.5261 36.519 76.5261C35.8434 76.5261 35.296 77.0738 35.296 77.7491V82.5449H33.6521C33.3503 82.5449 32.9995 82.056 32.9995 81.4262V69.223C32.9995 66.2306 34.8401 63.7957 37.1022 63.7957H48.8986C51.1607 63.7957 53.0013 66.2306 53.0013 69.223ZM17.1414 61.0852C17.1414 58.3596 18.808 56.1421 20.8567 56.1421H31.7949C33.8432 56.1421 35.5098 58.3596 35.5098 61.0852V61.5949C32.6673 62.4535 30.5536 65.5431 30.5536 69.223V73.3491H21.5392V68.9912C21.5392 68.316 20.9918 67.7682 20.3162 67.7682C19.6406 67.7682 19.0932 68.316 19.0932 68.9912V73.3491H17.6579C17.4525 73.3491 17.1416 72.9709 17.1416 72.4008L17.1414 61.0852Z" fill="black"/>
<path d="M18.6133 42.8347C18.6133 47.0866 22.0726 50.5463 26.3249 50.5463C30.5769 50.5463 34.0362 47.0866 34.0362 42.8347C34.0362 38.5827 30.5769 35.123 26.3249 35.123C22.0726 35.1229 18.6133 38.5827 18.6133 42.8347ZM31.5902 42.8347C31.5902 45.7378 29.2281 48.1003 26.3251 48.1003C23.4216 48.1003 21.0594 45.7378 21.0594 42.8347C21.0594 39.9315 23.4216 37.569 26.3251 37.569C29.2281 37.569 31.5902 39.9315 31.5902 42.8347Z" fill="black"/>
<path d="M59.6761 50.5463C63.9284 50.5463 67.3877 47.0866 67.3877 42.8347C67.3877 38.5827 63.9284 35.123 59.6761 35.123C55.4242 35.123 51.9648 38.5827 51.9648 42.8347C51.9648 47.0866 55.4242 50.5463 59.6761 50.5463ZM59.6761 37.569C62.5796 37.569 64.9418 39.9315 64.9418 42.8347C64.9418 45.7378 62.5796 48.1003 59.6761 48.1003C56.7729 48.1003 54.411 45.7378 54.411 42.8347C54.411 39.9315 56.7729 37.569 59.6761 37.569Z" fill="black"/>
<path d="M34.7812 49.5399C34.7812 54.0729 38.469 57.7603 43.0021 57.7603C47.5351 57.7603 51.223 54.0729 51.223 49.5399C51.223 45.0069 47.5353 41.3193 43.0021 41.3193C38.469 41.3195 34.7812 45.0069 34.7812 49.5399ZM48.7769 49.5399C48.7769 52.7241 46.1863 55.3143 43.0021 55.3143C39.818 55.3143 37.2274 52.7241 37.2274 49.5399C37.2274 46.3557 39.818 43.7655 43.0021 43.7655C46.1863 43.7655 48.7769 46.3557 48.7769 49.5399Z" fill="black"/>
<path d="M43.0003 1.00879C34.3932 1.00879 27.3906 8.01107 27.3906 16.6185C27.3906 25.2259 34.3932 32.229 43.0003 32.229C51.6073 32.229 58.61 25.226 58.61 16.6185C58.61 8.0109 51.6073 1.00879 43.0003 1.00879ZM43.0003 29.7828C35.7417 29.7828 29.8368 23.8771 29.8368 16.6185C29.8368 9.35986 35.7417 3.45492 43.0003 3.45492C50.2589 3.45492 56.1638 9.35986 56.1638 16.6185C56.1638 23.8771 50.2589 29.7828 43.0003 29.7828Z" fill="black"/>
<path d="M47.7764 11.5167L40.7014 19.0906L38.2299 16.4224C37.7705 15.9264 36.9965 15.8968 36.5012 16.3564C36.0058 16.816 35.9761 17.5898 36.4352 18.0851L39.8006 21.7176C40.0319 21.9676 40.3221 22.0951 40.6979 22.1093C41.0367 22.1093 41.3603 21.9684 41.5916 21.7208L49.5641 13.1858C50.0252 12.693 49.9988 11.919 49.5052 11.4579C49.0115 10.9952 48.2375 11.0231 47.7764 11.5167Z" fill="black"/>
</svg>
