<svg width="31" height="31" viewBox="0 0 31 31" fill="none" xmlns="http://www.w3.org/2000/svg">
<g clip-path="url(#clip0_1_996)">
<path d="M15.5 0.5C7.22903 0.5 0.5 7.22903 0.5 15.5C0.5 23.7704 7.22903 30.5 15.5 30.5C23.7704 30.5 30.5 23.7704 30.5 15.5C30.5 7.22903 23.7716 0.5 15.5 0.5ZM19.2304 16.0281H16.79V24.7262H13.1738V16.0281H11.4548V12.9539H13.1738V10.9654C13.1738 9.54133 13.8505 7.31604 16.8232 7.31604L19.5029 7.32631V10.3105H17.5579C17.2413 10.3105 16.7912 10.4688 16.7912 11.1479V12.9545H19.5464L19.2304 16.0281Z" fill="white"/>
</g>
<defs>
<clipPath id="clip0_1_996">
<rect width="30" height="30" fill="white" transform="translate(0.5 0.5)"/>
</clipPath>
</defs>
</svg>
