<svg width="31" height="31" viewBox="0 0 31 31" fill="none" xmlns="http://www.w3.org/2000/svg">
<g clip-path="url(#clip0_1_1002)">
<path d="M18.3672 15.5C18.3672 17.0857 17.0818 18.3711 15.4961 18.3711C13.9104 18.3711 12.625 17.0857 12.625 15.5C12.625 13.9143 13.9104 12.6289 15.4961 12.6289C17.0818 12.6289 18.3672 13.9143 18.3672 15.5Z" fill="white"/>
<path d="M22.2135 10.4199C22.0754 10.0458 21.8552 9.70738 21.5692 9.42953C21.2914 9.14341 20.9529 8.92325 20.5788 8.78523C20.2753 8.6674 19.8194 8.52707 18.9796 8.48887C18.0711 8.44744 17.7988 8.43848 15.499 8.43848C13.1989 8.43848 12.9266 8.44721 12.0184 8.48863C11.1786 8.52707 10.7224 8.66734 10.4192 8.78523C10.045 8.92319 9.70656 9.14337 9.42879 9.42953C9.14268 9.70739 8.92244 10.0458 8.78426 10.4199C8.66643 10.7235 8.52609 11.1796 8.48789 12.0194C8.44646 12.9276 8.4375 13.1999 8.4375 15.5C8.4375 17.7998 8.44646 18.0721 8.48789 18.9805C8.52609 19.8203 8.66643 20.2763 8.78426 20.5797C8.92236 20.9539 9.14251 21.2923 9.42855 21.5702C9.70636 21.8563 10.0448 22.0764 10.419 22.2145C10.7225 22.3325 11.1786 22.4729 12.0184 22.5111C12.9266 22.5525 13.1987 22.5612 15.4988 22.5612C17.799 22.5612 18.0714 22.5525 18.9793 22.5111C19.8191 22.4729 20.2753 22.3325 20.5788 22.2145C20.9503 22.0712 21.2876 21.8517 21.5692 21.5701C21.8507 21.2886 22.0702 20.9512 22.2135 20.5797C22.3313 20.2762 22.4716 19.8204 22.5101 18.9805C22.5515 18.0721 22.5602 17.7998 22.5602 15.5C22.5602 13.1999 22.5515 12.9276 22.5101 12.0194C22.4719 11.1796 22.3315 10.7234 22.2135 10.4199ZM15.499 19.9227C13.0562 19.9227 11.0759 17.9426 11.0759 15.4997C11.0759 13.0569 13.0562 11.0768 15.499 11.0768C17.9416 11.0768 19.9219 13.0569 19.9219 15.4997C19.9219 17.9426 17.9416 19.9227 15.499 19.9227ZM20.0968 11.9356C19.526 11.9356 19.0632 11.4728 19.0632 10.902C19.0632 10.3312 19.526 9.86834 20.0968 9.86834C20.6676 9.86834 21.1304 10.3311 21.1304 10.9019C21.1301 11.4728 20.6676 11.9356 20.0968 11.9356Z" fill="white"/>
<path d="M15.5 0.5C7.21701 0.5 0.5 7.21701 0.5 15.5C0.5 23.783 7.21701 30.5 15.5 30.5C23.783 30.5 30.5 23.783 30.5 15.5C30.5 7.21701 23.783 0.5 15.5 0.5ZM24.0613 19.0511C24.0197 19.968 23.8739 20.594 23.661 21.1419C23.4397 21.7141 23.1013 22.2337 22.6675 22.6675C22.2337 23.1013 21.7141 23.4397 21.1419 23.661C20.5942 23.8739 19.968 24.0194 19.0513 24.0613C18.1329 24.1032 17.8394 24.1133 15.5002 24.1133C13.1608 24.1133 12.8676 24.1032 11.9489 24.0613C11.0322 24.0194 10.406 23.8739 9.85824 23.661C9.28345 23.4448 8.76277 23.1057 8.33258 22.6674C7.89446 22.2372 7.55546 21.7166 7.33924 21.1419C7.12637 20.5942 6.98059 19.968 6.93893 19.0513C6.89656 18.1326 6.88672 17.8392 6.88672 15.5C6.88672 13.1608 6.89656 12.8674 6.93869 11.9489C6.98029 11.032 7.1259 10.406 7.33877 9.85807C7.55506 9.28331 7.89421 8.7627 8.33252 8.33258C8.76266 7.89431 9.2833 7.55522 9.85807 7.339C10.406 7.12613 11.032 6.98059 11.9489 6.93869C12.8674 6.8968 13.1608 6.88672 15.5 6.88672C17.8392 6.88672 18.1326 6.8968 19.0511 6.93887C19.968 6.98059 20.594 7.12613 21.1419 7.33877C21.7167 7.55511 22.2374 7.89424 22.6677 8.33252C23.1058 8.76272 23.4448 9.28335 23.661 9.85807C23.8741 10.406 24.0196 11.032 24.0615 11.9489C24.1034 12.8674 24.1133 13.1608 24.1133 15.5C24.1133 17.8392 24.1034 18.1326 24.0613 19.0511Z" fill="white"/>
</g>
<defs>
<clipPath id="clip0_1_1002">
<rect width="30" height="30" fill="white" transform="translate(0.5 0.5)"/>
</clipPath>
</defs>
</svg>
