<svg width="31" height="31" viewBox="0 0 31 31" fill="none" xmlns="http://www.w3.org/2000/svg">
<g clip-path="url(#clip0_1_999)">
<path d="M15.5 0.5C7.22903 0.5 0.5 7.22903 0.5 15.5C0.5 23.7704 7.22903 30.5 15.5 30.5C23.7704 30.5 30.5 23.7704 30.5 15.5C30.5 7.22903 23.7716 0.5 15.5 0.5ZM22.1916 12.0669C22.1982 12.2155 22.2018 12.3654 22.2018 12.5152C22.2018 17.0776 18.7301 22.3366 12.3781 22.3366C10.4283 22.3366 8.61327 21.7668 7.08584 20.7868C7.35592 20.8188 7.63083 20.8351 7.90937 20.8351C9.52743 20.8351 11.0156 20.2829 12.1974 19.3572C11.4769 19.3437 10.7787 19.1052 10.2004 18.6752C9.62206 18.2452 9.19264 17.6452 8.97217 16.9592C9.48948 17.058 10.0225 17.0382 10.531 16.9012C9.74961 16.7432 9.04691 16.3198 8.54218 15.7028C8.03745 15.0857 7.76177 14.313 7.76194 13.5158L7.76255 13.4723C8.24172 13.7387 8.77766 13.8866 9.32563 13.9037C8.85289 13.5883 8.46539 13.161 8.19755 12.6598C7.92971 12.1586 7.78983 11.599 7.79034 11.0307C7.79034 10.3975 7.96012 9.80416 8.25739 9.29421C9.12423 10.3609 10.2057 11.2334 11.4316 11.855C12.6575 12.4766 14.0004 12.8335 15.3731 12.9025C15.3134 12.6444 15.2836 12.3802 15.2843 12.1152C15.2839 11.4226 15.4918 10.7459 15.881 10.173C16.2702 9.60014 16.8227 9.15755 17.4667 8.90278C18.1108 8.64801 18.8166 8.59283 19.4924 8.74442C20.1682 8.89601 20.7828 9.24735 21.2563 9.7528C22.0299 9.60097 22.7718 9.31751 23.4495 8.91477C23.1911 9.71481 22.6509 10.3937 21.9293 10.8253C22.6139 10.7448 23.2824 10.5617 23.9123 10.2821C23.4505 10.9754 22.8676 11.58 22.1916 12.0669Z" fill="white"/>
</g>
<defs>
<clipPath id="clip0_1_999">
<rect width="30" height="30" fill="white" transform="translate(0.5 0.5)"/>
</clipPath>
</defs>
</svg>
